<svg fill="#f1f1f1" id="Capa_1" enable-background="new 0 0 512 512" height="512" viewBox="0 0 512 512" width="512" xmlns="http://www.w3.org/2000/svg"><g><g><path d="m470.109 10.164h-428.218c-23.099 0-41.891 18.793-41.891 41.892v407.889c0 23.099 18.792 41.892 41.891 41.892h428.218c23.099 0 41.891-18.793 41.891-41.892v-407.889c0-23.099-18.792-41.892-41.891-41.892zm21.891 449.78c0 12.071-9.82 21.892-21.891 21.892h-428.218c-12.071 0-21.891-9.82-21.891-21.892v-407.888c0-12.071 9.82-21.892 21.891-21.892h428.218c12.071 0 21.891 9.82 21.891 21.892z"/><path d="m458 54.164h-404c-5.523 0-10 4.478-10 10v308.549c0 5.522 4.477 10 10 10h404c5.523 0 10-4.478 10-10v-308.549c0-5.522-4.477-10-10-10zm-10 20v117.653h-66.196l-23.136-30.142c-6.558-8.541-17.263-13.002-27.949-11.634-10.674 1.378-19.91 8.395-24.102 18.312l-8.956 21.177-4.107-6.856c-6.039-10.081-17.485-15.818-29.173-14.618-11.688 1.213-21.725 9.174-25.566 20.27l-1.856 5.341-15.589-66.105c-2.902-12.272-12.831-21.347-25.284-23.115-12.48-1.782-24.548 4.168-30.712 15.12l-38.63 67.789-62.744-.014v-113.178zm0 158.489h-81.158c-3.196 0-6.269-1.519-8.222-4.063l-10.966-14.283c-2.167-2.823-5.674-4.282-9.202-3.829-3.53.452-6.554 2.747-7.94 6.025l-18.625 44.055c-1.534 3.627-4.913 6.048-8.819 6.317-3.917.279-7.608-1.653-9.624-5.016l-12.43-20.762c-1.996-3.332-5.742-5.211-9.604-4.811-3.864.397-7.148 2.997-8.422 6.666l-21.812 62.795c-1.452 4.181-5.387 6.989-9.791 6.989-.177 0-.353-.005-.543-.016-4.575-.234-8.507-3.525-9.563-8.003l-27.601-117.004c-.946-4.009-4.253-7.028-8.331-7.605-.47-.066-.939-.099-1.405-.099-3.572 0-6.921 1.917-8.71 5.092l-21.251 37.728c-1.844 3.265-5.307 5.293-9.039 5.293h-80.942v-20.782l68.554.013c3.593 0 6.909-1.928 8.688-5.049l41.534-72.885c2.112-3.753 6.227-5.78 10.487-5.176 4.256.604 7.648 3.713 8.642 7.912l23.479 99.565c1.021 4.329 4.777 7.463 9.219 7.691 4.439.256 8.5-2.502 9.96-6.704l13.147-37.83c1.314-3.796 4.744-6.517 8.726-6.931 3.987-.395 7.896 1.555 9.961 5.002l14.226 23.749c1.935 3.23 5.515 5.104 9.276 4.837 3.756-.263 7.046-2.612 8.513-6.081l16.626-39.314c1.434-3.393 4.592-5.793 8.229-6.263 3.638-.466 7.296 1.059 9.536 3.976l26.138 34.052c1.893 2.466 4.824 3.911 7.933 3.911h71.126zm-384 130.06v-114.589h80.942c10.933 0 21.069-5.924 26.459-15.468l8.689-15.427 21.722 92.082c3.085 13.081 14.601 22.697 27.99 23.385.527.027 1.055.042 1.583.042 12.913 0 24.44-8.209 28.684-20.427l14.786-42.566 1.434 2.395c5.909 9.854 16.703 15.474 28.161 14.689 11.464-.793 21.373-7.874 25.859-18.481l11.939-28.241.509.662c5.711 7.442 14.715 11.885 24.086 11.885h81.157v110.06h-384z"/><path d="m75.638 403.649c-15.228 0-27.617 12.389-27.617 27.616 0 15.229 12.389 27.617 27.617 27.617s27.617-12.389 27.617-27.617c0-15.227-12.389-27.616-27.617-27.616zm0 35.234c-4.2 0-7.617-3.417-7.617-7.617 0-4.199 3.417-7.616 7.617-7.616s7.617 3.417 7.617 7.616c0 4.2-3.417 7.617-7.617 7.617z"/><path d="m156.83 403.649c-15.228 0-27.617 12.389-27.617 27.616 0 15.229 12.389 27.617 27.617 27.617s27.617-12.389 27.617-27.617c0-15.227-12.389-27.616-27.617-27.616zm0 35.234c-4.2 0-7.617-3.417-7.617-7.617 0-4.199 3.417-7.616 7.617-7.616s7.617 3.417 7.617 7.616c0 4.2-3.417 7.617-7.617 7.617z"/><path d="m238.021 403.649c-15.228 0-27.617 12.389-27.617 27.616 0 15.229 12.389 27.617 27.617 27.617s27.617-12.389 27.617-27.617c0-15.227-12.388-27.616-27.617-27.616zm0 35.234c-4.2 0-7.617-3.417-7.617-7.617 0-4.199 3.417-7.616 7.617-7.616s7.617 3.417 7.617 7.616c0 4.2-3.417 7.617-7.617 7.617z"/><path d="m457.021 421.266h-40.793c-5.523 0-10 4.478-10 10s4.477 10 10 10h40.793c5.523 0 10-4.478 10-10s-4.477-10-10-10z"/><path d="m325.815 421.266h-23.879c-5.523 0-10 4.478-10 10s4.477 10 10 10h23.879c5.523 0 10-4.478 10-10s-4.477-10-10-10z"/><path d="m376.76 422.95c-3.546-2.324-8.258-2.208-11.64.379-3.365 2.574-4.744 7.144-3.38 11.152 1.308 3.843 4.917 6.576 8.977 6.766 4.182.196 8.116-2.291 9.723-6.157 1.822-4.384.205-9.484-3.68-12.14z"/></g></g></svg>