<svg fill="#f1f1f1" height="512pt" viewBox="0 0 512 512" width="512pt" xmlns="http://www.w3.org/2000/svg"><path d="m151 241h30v-30h30v-30h-30v-30h-30v30h-30v30h30zm0 0"/><path d="m121 271h151v30h-151zm0 0"/><path d="m121 331h151v30h-151zm0 0"/><path d="m121 391h151v30h-151zm0 0"/><path d="m332 482h60v-392h-60v-30h-91v-30h-32.570312c-6.191407-17.460938-22.871094-30-42.429688-30s-36.238281 12.539062-42.429688 30h-32.570312v30h-91v452h332zm30-362v332h-30v-332zm-241-60h30v-15c0-8.269531 6.730469-15 15-15s15 6.730469 15 15v15h30v30h-90zm181 422h-272v-392h61v30h150v-30h61zm0 0"/><path d="m422 409.488281 45 91.5 45-91.5c0-15.511719 0-304.148437 0-319.488281h-90zm60-6.976562-15 30.5-15-30.5v-191.511719h30zm-30-282.511719h30v61h-30zm0 0"/><path d="m60 271h31v30h-31zm0 0"/><path d="m60 331h31v30h-31zm0 0"/><path d="m60 391h31v30h-31zm0 0"/></svg>