<svg fill="#f1f1f1" id="bold" height="512" viewBox="0 0 24 24" width="512" xmlns="http://www.w3.org/2000/svg"><path d="m14.5 24c-.333 0-.646-.166-.832-.445l-1.703-2.555h-1.965c-.552 0-1-.448-1-1s.448-1 1-1h2.5c.334 0 .646.167.832.445l1.044 1.566 2.229-4.459c.164-.326.491-.538.856-.552.388-.009.708.172.896.484l2.709 4.516h1.934c.552 0 1 .448 1 1s-.448 1-1 1h-2.5c-.351 0-.677-.184-.857-.485l-2.063-3.438-2.185 4.371c-.16.319-.477.529-.833.551-.02.001-.041.001-.062.001z"/><circle cx="9" cy="5" r="5"/><path d="m7 20c0-1.654 1.346-3 3-3h2.5c.519 0 1.019.133 1.458.377l.859-1.719c.437-.871 1.269-1.442 2.214-1.594-.91-1.245-2.37-2.064-4.031-2.064h-8c-2.761 0-5 2.239-5 5v3.25c0 .414.336.75.75.75h6.434c-.112-.314-.184-.648-.184-1z"/></svg>