<?xml version="1.0" encoding="iso-8859-1"?>
<!-- Generator: Adobe Illustrator 19.0.0, SVG Export Plug-In . SVG Version: 6.00 Build 0)  -->
<svg version="1.1" id="Capa_1" xmlns="http://www.w3.org/2000/svg" xmlns:xlink="http://www.w3.org/1999/xlink" x="0px" y="0px"
	 viewBox="0 0 480 480" style="enable-background:new 0 0 480 480;" xml:space="preserve">
<g>
	<g>
		<g>
			<path d="M240.065,24c-13.255-0.018-24.015,10.713-24.033,23.967c-0.006,4.224,1.103,8.375,3.215,12.033
				c4.258,7.439,12.181,12.02,20.752,12c13.255,0.018,24.015-10.713,24.033-23.967C264.051,34.778,253.32,24.018,240.065,24z
				 M246.936,51.904c-2.444,3.828-7.529,4.951-11.357,2.507c-1.008-0.643-1.863-1.499-2.507-2.507c-1.425-2.448-1.425-5.472,0-7.92
				V44c2.206-3.828,7.097-5.144,10.925-2.939c1.221,0.704,2.235,1.717,2.939,2.939C248.355,46.444,248.355,49.46,246.936,51.904z"/>
			<path d="M408,48h-65.472C339.15,38.445,330.134,32.042,320,32h-21.432C289.324,12.447,269.628-0.016,248,0h-16
				c-21.628-0.016-41.324,12.447-50.568,32H160c-10.134,0.042-19.15,6.445-22.528,16H72c-4.418,0-8,3.582-8,8v416
				c0,4.418,3.582,8,8,8h336c4.418,0,8-3.582,8-8V56C416,51.582,412.418,48,408,48z M152,56c0-4.418,3.582-8,8-8h26.8
				c3.405-0.002,6.435-2.159,7.552-5.376C199.969,26.651,215.068,15.973,232,16h16c16.932-0.027,32.031,10.651,37.648,26.624
				c1.117,3.216,4.147,5.374,7.552,5.376H320c4.418,0,8,3.582,8,8v40H152V56z M144,112h192c4.418,0,8-3.582,8-8v-8h24v336H112V96h24
				v8C136,108.418,139.582,112,144,112z M400,464H80V64h56v16h-32c-4.418,0-8,3.582-8,8v352c0,4.418,3.582,8,8,8h272
				c4.418,0,8-3.582,8-8V88c0-4.418-3.582-8-8-8h-32V64h56V464z"/>
			<path d="M216,240h48v-32h32v-48h-32v-32h-48v32h-32v48h32V240z M200,192v-16h32v-32h16v32h32v16h-32v32h-16v-32H200z"/>
			<rect x="184" y="360" width="152" height="16"/>
			<rect x="184" y="328" width="152" height="16"/>
			<rect x="184" y="296" width="152" height="16"/>
			<rect x="144" y="296" width="24" height="16"/>
			<rect x="144" y="360" width="24" height="16"/>
			<rect x="144" y="328" width="24" height="16"/>
		</g>
	</g>
</g>
<g>
</g>
<g>
</g>
<g>
</g>
<g>
</g>
<g>
</g>
<g>
</g>
<g>
</g>
<g>
</g>
<g>
</g>
<g>
</g>
<g>
</g>
<g>
</g>
<g>
</g>
<g>
</g>
<g>
</g>
</svg>
