<svg fill="#f1f1f1" id="_x33_0_A_seat" enable-background="new 0 0 64 64" height="512" viewBox="0 0 64 64" width="512" xmlns="http://www.w3.org/2000/svg"><path d="m7 19v12h14v-12zm12 10h-10v-8h10z"/><path d="m7 35h4v2h-4z"/><path d="m13 35h8v2h-8z"/><path d="m7 55h4v2h-4z"/><path d="m13 55h8v2h-8z"/><path d="m7 39h14v2h-14z"/><path d="m7 43h14v2h-14z"/><path d="m7 47h14v2h-14z"/><path d="m7 51h14v2h-14z"/><path d="m57 7h-14v12h14zm-2 10h-10v-8h10z"/><path d="m43 23h4v2h-4z"/><path d="m49 23h8v2h-8z"/><path d="m43 43h4v2h-4z"/><path d="m49 43h8v2h-8z"/><path d="m43 27h14v2h-14z"/><path d="m43 31h14v2h-14z"/><path d="m43 35h14v2h-14z"/><path d="m43 39h14v2h-14z"/><path d="m37.586 1-12 12h-24.586v50h25.414l12-12h24.586v-50zm-.586 40.586-10 10v-5.172l10-10zm0-8-10 10v-5.172l10-10zm0-8-10 10v-5.172l10-10zm0-8-10 10v-5.172l10-10zm0-8-10 10v-5.172l10-10zm-10 44.828 10-10v5.172l-10 10zm-24-39.414h22v46h-22zm58 34h-22v-46h22z"/></svg>