<?xml version="1.0" encoding="iso-8859-1"?>
<!-- Generator: Adobe Illustrator 16.0.0, SVG Export Plug-In . SVG Version: 6.00 Build 0)  -->
<!DOCTYPE svg PUBLIC "-//W3C//DTD SVG 1.1//EN" "http://www.w3.org/Graphics/SVG/1.1/DTD/svg11.dtd">
<svg version="1.1" id="Capa_1" xmlns="http://www.w3.org/2000/svg" xmlns:xlink="http://www.w3.org/1999/xlink" x="0px" y="0px"
	 width="140.98px" height="140.98px" viewBox="0 0 140.98 140.98" style="enable-background:new 0 0 140.98 140.98;"
	 xml:space="preserve">
<g>
	<path fill="#f1f1f1" d="M138.187,28.18H70.843C65.929,13.874,52.375,3.545,36.423,3.545C16.339,3.545,0,19.885,0,39.967
		c0,16.84,11.506,31.004,27.048,35.154v59.512c0,1.556,1.256,2.802,2.802,2.802h39.224h29.883h39.222
		c1.544,0,2.802-1.246,2.802-2.802V30.971C140.988,29.428,139.733,28.18,138.187,28.18z M5.598,39.975
		c0-16.985,13.822-30.818,30.818-30.818c16.996,0,30.818,13.833,30.818,30.818c0,16.988-13.823,30.822-30.818,30.822
		C19.43,70.797,5.598,56.963,5.598,39.975z M135.385,131.842h-33.622v-52.3c0-1.556-1.252-2.804-2.802-2.804H69.079
		c-1.545,0-2.802,1.248-2.802,2.804v52.3H32.658V76.203c1.237,0.114,2.498,0.18,3.771,0.18c0.695,0,1.373-0.065,2.057-0.099v5.807
		h9.112v-7.475c14.628-4.729,25.251-18.47,25.251-34.66c0-2.118-0.216-4.167-0.563-6.191h63.101V131.842z M73.287,53.855h7.941
		v-7.929c0-1.548,1.257-2.802,2.802-2.802c1.541,0,2.802,1.253,2.802,2.802v7.929h7.933c1.545,0,2.802,1.259,2.802,2.802
		c0,1.551-1.257,2.802-2.802,2.802h-7.933v7.934c0,1.555-1.261,2.802-2.802,2.802c-1.545,0-2.802-1.247-2.802-2.802v-7.934h-7.941
		c-1.544,0-2.802-1.251-2.802-2.802C70.485,55.109,71.735,53.855,73.287,53.855z M116.233,126.589h-9.105v-9.117h9.105V126.589z
		 M130.595,126.589h-9.115v-9.117h9.115V126.589z M116.233,112.581h-9.105v-9.117h9.105V112.581z M130.595,112.581h-9.115v-9.117
		h9.115V112.581z M116.233,96.12h-9.105v-9.116h9.105V96.12z M130.595,96.12h-9.115v-9.116h9.115V96.12z M116.233,82.112h-9.105
		v-9.116h9.105V82.112z M130.595,82.112h-9.115v-9.116h9.115V82.112z M116.233,64.602h-9.105v-9.116h9.105V64.602z M130.595,64.602
		h-9.115v-9.116h9.115V64.602z M116.233,50.594h-9.105v-9.116h9.105V50.594z M130.595,50.594h-9.115v-9.116h9.115V50.594z
		 M38.485,117.472h9.112v9.117h-9.112V117.472z M52.84,117.472h9.111v9.117H52.84V117.472z M38.485,103.464h9.112v9.117h-9.112
		V103.464z M52.84,103.464h9.111v9.117H52.84V103.464z M38.485,87.004h9.112v9.116h-9.112V87.004z M52.84,87.004h9.111v9.116H52.84
		V87.004z M52.84,72.996h9.111v9.116H52.84V72.996z M34.78,43.666H18.526v-0.011c0-2.173,0.556-4.044,1.653-5.598
		c1.102-1.562,3.17-3.401,6.212-5.546c1.363-0.949,2.321-1.817,2.881-2.613c0.562-0.788,0.829-1.669,0.829-2.638
		c0-1.053-0.304-1.912-0.913-2.55c-0.604-0.651-1.417-0.969-2.421-0.969c-1.07,0-1.905,0.403-2.498,1.209
		c-0.6,0.807-0.882,1.904-0.835,3.289h-4.587c-0.085-2.582,0.593-4.635,2.026-6.154c1.434-1.518,3.406-2.268,5.935-2.268
		c2.342,0,4.263,0.7,5.754,2.09c1.485,1.401,2.218,3.188,2.218,5.401c0,1.811-0.42,3.311-1.272,4.5
		c-0.839,1.193-2.426,2.521-4.747,4.006c-2.15,1.357-3.62,2.594-4.396,3.699l-0.017,0.033h10.426L34.78,43.666L34.78,43.666z
		 M46.639,43.666h4.604V38.41h2.684v-3.731h-2.684V19.825h-2.616h-2.624l-8.809,14.533v2.03v2.022h9.443V43.666L46.639,43.666z
		 M40.642,34.679l0.196-0.331l5.79-9.598v9.923h-5.986V34.679z M28.691,47.516h1.282v12.276h-1.282h-1.283v-5.556h-4.807v5.556
		h-1.279h-1.288V47.516h1.282h1.284v4.607h4.807v-4.607H28.691z M39.181,55.294c0.317,0.241,0.48,0.626,0.492,1.183l0.017,1.142
		c0.004,0.477,0.033,0.931,0.084,1.344c0.049,0.428,0.112,0.701,0.173,0.818h2.836v-0.329c-0.201-0.101-0.346-0.229-0.416-0.398
		c-0.074-0.157-0.117-0.444-0.124-0.847l-0.062-2.005c-0.027-0.993-0.387-1.693-1.092-2.106c-0.118-0.079-0.257-0.137-0.409-0.203
		c0.268-0.107,0.509-0.224,0.723-0.369c0.796-0.539,1.193-1.401,1.193-2.586c0-1.023-0.354-1.841-1.071-2.465
		c-0.717-0.62-1.658-0.941-2.834-0.941h-4.907h-1.284v12.271h1.284h1.279v-4.851h2.561C38.345,54.946,38.86,55.064,39.181,55.294z
		 M35.048,49.639h3.079c0.625,0,1.097,0.129,1.417,0.394c0.315,0.274,0.47,0.676,0.47,1.215c0,0.561-0.164,0.952-0.498,1.233
		c-0.331,0.274-0.824,0.397-1.491,0.397h-2.977V49.639L35.048,49.639z M47.382,49.729c-0.369,0.293-0.554,0.684-0.554,1.199
		c0,0.366,0.192,0.651,0.582,0.848c0.369,0.201,1.176,0.443,2.416,0.717c1.782,0.392,2.979,0.852,3.586,1.385
		c0.6,0.514,0.901,1.337,0.901,2.486c0,1.16-0.446,2.069-1.361,2.745c-0.908,0.68-2.142,1.021-3.682,1.021
		c-1.551,0-2.769-0.348-3.643-1.069c-0.875-0.717-1.338-1.749-1.405-3.076h2.475c0.023,0.654,0.263,1.155,0.707,1.513
		c0.443,0.349,1.064,0.536,1.866,0.536c0.817,0,1.463-0.134,1.918-0.402c0.451-0.261,0.694-0.624,0.694-1.094
		c0-0.465-0.17-0.81-0.5-1.018c-0.332-0.224-1.018-0.448-2.071-0.677c-1.951-0.439-3.256-0.909-3.913-1.413
		c-0.651-0.504-0.975-1.284-0.975-2.342c0-1.204,0.424-2.148,1.29-2.848c0.866-0.701,2.027-1.053,3.502-1.053
		c1.375,0,2.491,0.36,3.353,1.088c0.866,0.717,1.347,1.697,1.448,2.925h-2.501c-0.044-0.583-0.301-1.053-0.771-1.39
		c-0.466-0.346-1.076-0.517-1.828-0.517C48.264,49.303,47.746,49.445,47.382,49.729z"/>
</g>
<g>
</g>
<g>
</g>
<g>
</g>
<g>
</g>
<g>
</g>
<g>
</g>
<g>
</g>
<g>
</g>
<g>
</g>
<g>
</g>
<g>
</g>
<g>
</g>
<g>
</g>
<g>
</g>
<g>
</g>
</svg>
